<svg xmlns="http://www.w3.org/2000/svg" version="1.1" xmlns:xlink="http://www.w3.org/1999/xlink" xmlns:svgjs="http://svgjs.dev/svgjs" width="100%" height="100%" viewBox="0 0 1000 600"><rect width="1000" height="600" x="0" y="0" fill="#234e70"/><g><rect width="333.3333333333333" height="333.3333333333333" rx="13.333333333333334" ry="13.333333333333334" y="223.32182796895503" fill="#fbf8be" transform="matrix(0.6215825102221186,0,0,0.6215825102221187,0,57.58997319981013)" x="201.099609375"/><path d="M365.9715334732505 430.8631051954583L368.8026760342212 430.8631051954583Q375.57719573368684 430.8631051954583 380.5316952153855 435.66593632567645Q385.5367508142445 440.46876745589464 385.5367508142445 447.19273103820007L385.5367508142445 447.19273103820007L385.5367508142445 449.0127512559669Q385.5367508142445 455.7367148382724 380.7339196840263 460.38787761700996Q375.93108855380814 464.9884842785874 368.8026760342212 464.9884842785874L368.8026760342212 464.9884842785874L365.9715334732505 464.9884842785874Q359.24756989094504 464.9884842785874 354.59640711220743 460.18565314836917Q349.99580045063004 455.38282201815105 349.99580045063004 449.0127512559669L349.99580045063004 449.0127512559669L349.99580045063004 447.19273103820007Q349.99580045063004 440.46876745589464 354.59640711220743 435.66593632567645Q359.24756989094504 430.8631051954583 365.9715334732505 430.8631051954583L365.9715334732505 430.8631051954583ZM365.9715334732505 314.9884846642999L368.8026760342212 314.9884846642999Q375.57719573368684 314.9884846642999 380.5316952153855 319.58909132587735Q385.5367508142445 324.2402541046149 385.5367508142445 331.3181105070417L385.5367508142445 331.3181105070417L385.5367508142445 332.7336817875271Q385.5367508142445 339.5082014869927 380.7339196840263 344.4627009686915Q375.93108855380814 349.4677565675504 368.8026760342212 349.4677565675504L368.8026760342212 349.4677565675504L365.9715334732505 349.4677565675504Q359.24756989094504 349.4677565675504 354.59640711220743 344.6649254373322Q349.99580045063004 339.86209430711403 349.99580045063004 332.7336817875271L349.99580045063004 332.7336817875271L349.99580045063004 331.3181105070417Q349.99580045063004 324.59414692473626 354.59640711220743 319.79131579451814Q359.24756989094504 314.9884846642999 365.9715334732505 314.9884846642999L365.9715334732505 314.9884846642999Z " fill="#234e70" transform="matrix(0.6215825102221186,0,0,0.6215825102221187,0,57.58997319981013)"/><path d="M631.9352135768296 354.25278948154846L631.9352135768296 358.28548708512164Q643.6245870358357 346.4053779286493 658.8561948763587 346.4053779286493Q674.0878027168817 346.4053779286493 684.8234976885564 357.11382494354297L684.8234976885564 357.11382494354297Q696.7036068450287 368.99393410001534 696.894342542495 387.95851201952166L696.894342542495 387.95851201952166Q696.894342542495 407.1410735932752 684.8234976885564 419.0211827497476L684.8234976885564 419.0211827497476Q673.7063313219492 429.7296297646413 658.6654591788924 429.64788589429855Q643.6245870358357 429.53889406717497 631.9352135768296 417.6587849107026L631.9352135768296 417.6587849107026L631.9352135768296 457.71328137862554Q631.9352135768296 460.76505253808625 629.9461127318239 462.8903931669965Q627.9297639300373 464.9884858391258 624.8507448137956 464.9884858391258Q621.7989736543348 464.9884858391258 619.7826248525482 462.8903931669965Q617.7662760507617 460.76505253808625 617.7662760507617 457.71328137862554L617.7662760507617 457.71328137862554L617.7662760507617 354.25278948154846Q617.7662760507617 351.36450606277305 619.7826248525482 349.2664133906438Q621.7989736543348 347.16832071851445 624.8507448137956 347.16832071851445Q627.9297639300373 347.16832071851445 629.9461127318239 349.1846695203011Q631.9352135768296 351.1737703653068 631.9352135768296 354.25278948154846L631.9352135768296 354.25278948154846ZM631.9352135768296 371.5007461238581L631.9352135768296 404.44352587196613Q642.6709085485041 416.3236350284385 656.839846074572 416.13289933097224L656.839846074572 416.13289933097224Q674.850745506747 416.13289933097224 680.7908000849832 400.2200925709266L680.7908000849832 400.2200925709266Q682.725405016427 394.87949304187026 682.5346693189607 387.95851201952166L682.5346693189607 387.95851201952166Q682.5346693189607 374.55251728331893 675.4229525991459 366.895841427886L675.4229525991459 366.895841427886Q668.5292195335782 359.81137266485206 656.839846074572 359.81137266485206L656.839846074572 359.81137266485206Q642.6709085485041 359.81137266485206 631.9352135768296 371.5007461238581L631.9352135768296 371.5007461238581ZM726.2131440387433 393.13562380789267Q727.5482939210074 403.68058308210095 734.3602831162324 409.92036518492705Q741.1450243546765 416.13289933097224 753.1341253382725 416.13289933097224Q765.0959783650876 416.13289933097224 773.5155970103856 412.2909374248653L773.5155970103856 412.2909374248653Q776.2131447316947 410.95578754260123 778.311237403824 410.8740436722585Q780.4365780327341 410.7650518451349 782.2349431802736 412.4816731223316Q784.0605562845939 414.22554235630923 784.0605562845939 416.3236350284385L784.0605562845939 416.3236350284385Q784.0605562845939 420.547068329478 780.7090576005432 422.2636896066747Q777.3575589164925 423.9803108838714 774.6872591519643 425.3427087229164Q771.9897114306552 426.67785860518046 768.9379402711944 427.63153709251196L768.9379402711944 427.63153709251196Q761.8534715081605 429.53889406717497 752.4529264187499 429.53889406717497L752.4529264187499 429.53889406717497Q733.106877104311 429.53889406717497 722.48017395976 418.7214552251577Q711.8262228584282 407.9040163831404 711.8262228584282 387.95851201952166L711.8262228584282 387.95851201952166Q711.8262228584282 370.73780333399293 720.845296552906 359.23916557245315L720.845296552906 359.23916557245315Q731.0087844321818 346.4053779286493 749.4011552592892 346.4053779286493L749.4011552592892 346.4053779286493Q767.0033353397505 346.4053779286493 777.1668232190261 358.28548708512164L777.1668232190261 358.28548708512164Q786.758104005903 369.3754054949479 786.758104005903 386.05115504485866L786.758104005903 386.05115504485866Q786.758104005903 388.9394384636341 784.7417552041163 391.03753113576334Q782.7254064023298 393.13562380789267 779.646387286088 393.13562380789267L779.646387286088 393.13562380789267L726.2131440387433 393.13562380789267ZM749.4011552592892 358.47622278258797L749.4011552592892 358.47622278258797Q735.3957054739067 358.47622278258797 729.0741795007378 370.9285390314592L729.0741795007378 370.9285390314592Q726.7853511311422 375.3154600731841 726.2131440387433 381.44625034888657L726.2131440387433 381.44625034888657L772.5619185230541 381.44625034888657Q771.9897114306552 370.35633193906034 764.3330355752223 363.84407026842524L764.3330355752223 363.84407026842524Q758.2022452995199 358.47622278258797 749.4011552592892 358.47622278258797ZM820.0823551489436 354.4435251790147L820.0823551489436 361.14652254711615Q831.1995215155507 346.4053779286493 844.7962519492198 346.4053779286493L844.7962519492198 346.4053779286493L845.559194739085 346.4053779286493Q848.4474781578605 346.4053779286493 850.4365790028661 348.42172673043586Q852.4529278046527 350.41082757544154 852.4529278046527 353.4898466916833Q852.4529278046527 356.54161785114405 850.3548351325235 358.3672309554644Q848.2567424603941 360.19284405978465 845.1777233441525 360.19284405978465L845.1777233441525 360.19284405978465L844.4147805542873 360.19284405978465Q836.5673690013881 360.19284405978465 830.4365787256856 364.03480596589156Q824.3057884499831 367.8495199152175 820.0823551489436 373.98031019092L820.0823551489436 373.98031019092L820.0823551489436 421.6914825142758Q820.0823551489436 424.5525179762703 817.9842624768143 426.67785860518046Q815.8589218479041 428.7759512773098 812.9978863859096 428.7759512773098L812.9978863859096 428.7759512773098Q810.1096029671342 428.7759512773098 808.0115102950049 426.67785860518046Q805.9134176228756 424.5525179762703 805.9134176228756 421.6914825142758L805.9134176228756 421.6914825142758L805.9134176228756 354.4435251790147Q805.9134176228756 351.5824897170203 807.9297664246623 349.37540521776737Q809.9188672696679 347.16832071851445 812.9978863859096 347.16832071851445L812.9978863859096 347.16832071851445Q815.8589218479041 347.16832071851445 817.9842624768143 349.2664133906438Q820.0823551489436 351.36450606277305 820.0823551489436 354.4435251790147L820.0823551489436 354.4435251790147ZM904.387533429048 416.13289933097224L904.387533429048 416.13289933097224Q913.1886234692786 416.13289933097224 921.0632829789587 411.90946602993273L921.0632829789587 411.90946602993273Q923.733582743487 410.3835804502023 926.0224111130825 410.30183657985964Q928.338487439459 410.19284475273605 930.0551087166557 412.2909374248653Q931.7717299938524 414.4162780537755 931.7717299938524 417.1955696454273Q931.7717299938524 419.9748612370791 928.1477517419928 422.2636896066747L928.1477517419928 422.2636896066747Q917.0305853753855 429.53889406717497 903.2431192442502 429.53889406717497L903.2431192442502 429.53889406717497Q885.8044269044742 429.53889406717497 873.7335820505356 418.6124633980341L873.7335820505356 418.6124633980341Q861.090530104198 406.9503378958089 861.2812658016643 387.95851201952166L861.2812658016643 387.95851201952166Q861.2812658016643 368.99393410001534 873.7335820505356 357.30456064100923L873.7335820505356 357.30456064100923Q885.613691207008 346.214642231183 903.2431192442502 346.4053779286493L903.2431192442502 346.4053779286493Q912.6164163768797 346.4053779286493 918.6654627822395 348.80319812536845Q924.6872612308184 351.1737703653068 928.2294956123354 353.57159056202596Q931.7717299938524 355.96941075874514 931.7717299938524 358.85769417752056Q931.7717299938524 361.71872963951506 930.0551087166557 363.626086614178Q928.338487439459 365.5606915456219 926.5946182054813 365.5606915456219L926.5946182054813 365.5606915456219Q923.9243184409532 365.5606915456219 921.0632829789587 364.03480596589156L921.0632829789587 364.03480596589156Q912.9978877718124 359.62063696738574 904.387533429048 359.81137266485206L904.387533429048 359.81137266485206Q890.6000672979126 359.81137266485206 883.0251353128224 367.5770403474085Q875.4502033277322 375.3154600731841 875.4502033277322 387.95851201952166L875.4502033277322 387.95851201952166Q875.4502033277322 400.6288119226401 883.0251353128224 408.3672316484157Q890.6000672979126 416.13289933097224 904.387533429048 416.13289933097224ZM1003.4338563276192 416.13289933097224L1003.4338563276192 416.13289933097224Q1018.1750009460861 416.13289933097224 1031.00878858989 409.2391662654045L1031.00878858989 409.2391662654045L1031.00878858989 380.8740432564877L1004.9597419073496 380.8740432564877Q1002.2894421428214 380.8740432564877 1000.4638290385012 378.9666862818247Q998.6382159341808 377.0593293071617 998.6382159341808 374.3617815858526L998.6382159341808 374.3617815858526Q998.6382159341808 371.69148182132443 1000.5455729088438 369.7568768898805Q1002.4801778402878 367.8495199152175 1004.9597419073496 367.8495199152175L1004.9597419073496 367.8495199152175L1035.9951646807947 367.8495199152175Q1039.0741837970363 367.8495199152175 1041.2812682962892 370.0566044144704Q1043.4611048387612 372.2636889137233 1043.4611048387612 375.5061957706504L1043.4611048387612 375.5061957706504L1043.4611048387612 410.95578754260123Q1043.4611048387612 414.4162780537755 1041.8534753886881 417.004833947961Q1040.2185979818341 419.5933898421465 1037.548298217306 420.7378040269443L1037.548298217306 420.7378040269443Q1019.9188701800637 429.53889406717497 1001.7172350504225 429.53889406717497L1001.7172350504225 429.53889406717497Q977.0033382501463 429.53889406717497 961.8534742799659 413.8440709613766Q946.7308582665664 398.12199989879736 946.5401225691002 373.4081030985211L946.5401225691002 373.4081030985211Q946.5401225691002 348.50347060077854 962.4256813723648 332.20919244580045L962.4256813723648 332.20919244580045Q977.5755453425452 316.89584073493467 1001.1450279580237 316.89584073493467L1001.1450279580237 316.89584073493467Q1014.5510226942264 316.89584073493467 1023.7335841293897 320.1383475918617Q1032.9433935213337 323.4081024055697 1040.2185979818341 328.2037427990081L1040.2185979818341 328.2037427990081Q1043.2703691412949 329.9203640762048 1043.2703691412949 333.1901188899128Q1043.2703691412949 336.4326257468399 1041.6627396912218 338.3399827215029Q1040.0278622843678 340.2745876529468 1037.548298217306 340.2745876529468Q1035.0414861934632 340.2745876529468 1033.5156006137327 339.51164486308164L1033.5156006137327 339.51164486308164Q1018.3657366435524 330.68330686607 1002.6709135377541 330.68330686607L1002.6709135377541 330.68330686607Q984.4692784081129 330.68330686607 972.7799049491068 341.8004732326772L972.7799049491068 341.8004732326772Q960.7090600951681 353.4898466916833 960.8997957926344 373.4081030985211L960.8997957926344 373.4081030985211Q960.8997957926344 391.99120962309485 972.0169621592416 403.8713187795672L972.0169621592416 403.8713187795672Q983.7063356182477 416.13289933097224 1003.4338563276192 416.13289933097224ZM1076.4311325436502 393.13562380789267Q1077.7662824259141 403.68058308210095 1084.5782716211393 409.92036518492705Q1091.3630128595833 416.13289933097224 1103.3521138431793 416.13289933097224Q1115.3139668699944 416.13289933097224 1123.7608334720735 412.2909374248653L1123.7608334720735 412.2909374248653Q1126.4311332366015 410.95578754260123 1128.529225908731 410.8740436722585Q1130.6545665376411 410.7650518451349 1132.4529316851804 412.4816731223316Q1134.2785447895008 414.22554235630923 1134.2785447895008 416.3236350284385L1134.2785447895008 416.3236350284385Q1134.2785447895008 420.547068329478 1130.92704610545 422.2636896066747Q1127.5755474213993 423.9803108838714 1124.905247656871 425.3427087229164Q1122.207699935562 426.67785860518046 1119.1559287761013 427.63153709251196L1119.1559287761013 427.63153709251196Q1112.0714600130673 429.53889406717497 1102.6709149236567 429.53889406717497L1102.6709149236567 429.53889406717497Q1083.3248656092178 429.53889406717497 1072.698162464667 418.7214552251577Q1062.071459320116 407.9040163831404 1062.071459320116 387.95851201952166L1062.071459320116 387.95851201952166Q1062.071459320116 370.73780333399293 1071.063285057813 359.23916557245315L1071.063285057813 359.23916557245315Q1081.2267729370885 346.4053779286493 1099.619143764196 346.4053779286493L1099.619143764196 346.4053779286493Q1117.2485718014382 346.4053779286493 1127.3848117239331 358.28548708512164L1127.3848117239331 358.28548708512164Q1136.9760925108098 369.3754054949479 1136.9760925108098 386.05115504485866L1136.9760925108098 386.05115504485866Q1136.9760925108098 388.9394384636341 1134.9597437090233 391.03753113576334Q1132.9433949072366 393.13562380789267 1129.8916237477758 393.13562380789267L1129.8916237477758 393.13562380789267L1076.4311325436502 393.13562380789267ZM1099.619143764196 358.47622278258797L1099.619143764196 358.47622278258797Q1085.6136939788134 358.47622278258797 1079.2921680056447 370.9285390314592L1079.2921680056447 370.9285390314592Q1077.003339636049 375.3154600731841 1076.4311325436502 381.44625034888657L1076.4311325436502 381.44625034888657L1122.779907027961 381.44625034888657Q1122.207699935562 370.35633193906034 1114.551024080129 363.84407026842524L1114.551024080129 363.84407026842524Q1108.4202338044265 358.47622278258797 1099.619143764196 358.47622278258797ZM1196.1586546389244 359.62063696738574L1196.1586546389244 359.62063696738574Q1182.3711885077892 359.62063696738574 1170.3003436538504 374.7432529807852L1170.3003436538504 374.7432529807852L1170.3003436538504 421.6914825142758Q1170.3003436538504 424.5525179762703 1168.2022509817211 426.67785860518046Q1166.076910352811 428.7759512773098 1163.2158748908164 428.7759512773098L1163.2158748908164 428.7759512773098Q1160.3548394288218 428.7759512773098 1158.2294987999117 426.67785860518046Q1156.1314061277826 424.5525179762703 1156.1314061277826 421.6914825142758L1156.1314061277826 421.6914825142758L1156.1314061277826 354.4435251790147Q1156.1314061277826 351.36450606277305 1158.1477549295691 349.2664133906438Q1160.1641037313557 347.16832071851445 1163.2158748908164 347.16832071851445L1163.2158748908164 347.16832071851445Q1166.076910352811 347.16832071851445 1168.2022509817211 349.1846695203011Q1170.3003436538504 351.1737703653068 1170.3003436538504 354.4435251790147L1170.3003436538504 354.4435251790147L1170.3003436538504 360.9557868496498Q1176.6218696270191 354.4435251790147 1181.2267743229913 351.5824897170203L1181.2267743229913 351.5824897170203Q1190.0278643632219 346.4053779286493 1198.175003440711 346.4053779286493Q1206.3221425182 346.4053779286493 1211.499254306571 348.80319812536845Q1216.6763660949423 351.1737703653068 1220.300344346802 355.58793936381255L1220.300344346802 355.58793936381255Q1227.602796764083 364.22554166335783 1227.602796764083 377.0593293071617L1227.602796764083 377.0593293071617L1227.602796764083 421.6914825142758Q1227.602796764083 424.5525179762703 1225.4774561351728 426.67785860518046Q1223.3793634630433 428.7759512773098 1220.491080044268 428.7759512773098L1220.491080044268 428.7759512773098Q1217.6300445822735 428.7759512773098 1215.5319519101442 426.67785860518046Q1213.406611281234 424.5525179762703 1213.406611281234 421.6914825142758L1213.406611281234 421.6914825142758L1213.406611281234 378.5852148868921Q1213.406611281234 369.7568768898805 1209.4011616344417 364.68875692863315Q1205.3684640308686 359.62063696738574 1196.1586546389244 359.62063696738574ZM1260.1641051172583 410.0021090552697Q1263.9788190665845 410.0021090552697 1266.56737496077 412.59066494945523Q1269.1559308549554 415.1792208436407 1269.1559308549554 418.8031990955004L1269.1559308549554 418.8031990955004L1269.1559308549554 419.7841255396128Q1269.1559308549554 423.4081037914725 1266.56737496077 425.9149158153153Q1263.9788190665845 428.39447988237714 1260.1641051172583 428.39447988237714L1260.1641051172583 428.39447988237714L1258.6382195375281 428.39447988237714Q1254.9869933288874 428.39447988237714 1252.5074292618256 425.8059239881917Q1250.0006172379826 423.2173680940062 1250.0006172379826 419.7841255396128L1250.0006172379826 419.7841255396128L1250.0006172379826 418.8031990955004Q1250.0006172379826 415.1792208436407 1252.5074292618256 412.59066494945523Q1254.9869933288874 410.0021090552697 1258.6382195375281 410.0021090552697L1258.6382195375281 410.0021090552697L1260.1641051172583 410.0021090552697ZM1292.725413470434 354.4435251790147Q1292.725413470434 351.1737703653068 1294.823506142563 349.1846695203011Q1296.9488467714732 347.16832071851445 1300.000617930934 347.16832071851445Q1303.0796370471758 347.16832071851445 1304.9869940218387 349.1846695203011Q1306.8943509965018 351.1737703653068 1306.8943509965018 354.4435251790147L1306.8943509965018 354.4435251790147L1306.8943509965018 421.6914825142758Q1306.8943509965018 424.5525179762703 1304.9869940218387 426.67785860518046Q1303.0796370471758 428.7759512773098 1300.000617930934 428.7759512773098Q1296.9488467714732 428.7759512773098 1294.823506142563 426.67785860518046Q1292.725413470434 424.5525179762703 1292.725413470434 421.6914825142758L1292.725413470434 421.6914825142758L1292.725413470434 354.4435251790147ZM1308.447484533013 323.0266310106371L1308.447484533013 323.59883810303603Q1308.447484533013 327.05932861421036 1306.1314082066365 329.3481569838059Q1303.842579837041 331.63698535340154 1300.3820893258667 331.63698535340154L1300.3820893258667 331.63698535340154L1299.428410838535 331.63698535340154Q1295.9951682841418 331.63698535340154 1293.7880837848888 329.3481569838059Q1291.5809992856362 327.05932861421036 1291.5809992856362 323.59883810303603L1291.5809992856362 323.59883810303603L1291.5809992856362 323.0266310106371Q1291.5809992856362 319.56614049946285 1293.8698276552316 317.27731212986725Q1296.1859039816081 314.98848376027166 1299.428410838535 314.98848376027166L1299.428410838535 314.98848376027166L1300.3820893258667 314.98848376027166Q1303.842579837041 314.98848376027166 1306.1314082066365 317.27731212986725Q1308.447484533013 319.56614049946285 1308.447484533013 323.0266310106371L1308.447484533013 323.0266310106371ZM1367.6300466611276 346.4053779286493L1367.6300466611276 346.4053779286493Q1385.831681790769 346.4053779286493 1396.9488481573758 357.90401569018906L1396.9488481573758 357.90401569018906Q1408.066014523983 369.5661411924142 1407.6845431290508 387.95851201952166L1407.6845431290508 387.95851201952166Q1407.6845431290508 406.5416185440954 1396.9488481573758 418.04025630563524L1396.9488481573758 418.04025630563524Q1385.831681790769 429.53889406717497 1367.6300466611276 429.53889406717497L1367.6300466611276 429.53889406717497Q1349.2376758340201 429.53889406717497 1338.5292288191265 418.04025630563524L1338.5292288191265 418.04025630563524Q1327.4120624525194 406.5416185440954 1327.4120624525194 387.95851201952166L1327.4120624525194 387.95851201952166Q1327.4120624525194 369.1846697974816 1338.5292288191265 357.90401569018906L1338.5292288191265 357.90401569018906Q1349.2376758340201 346.4053779286493 1367.6300466611276 346.4053779286493ZM1350.1096104510088 410.1111008823933Q1353.8425805299921 413.462599566444 1358.529229096307 414.9884851461744Q1363.243125619403 416.51437072590477 1367.6300466611276 416.51437072590477Q1372.0442156596337 416.51437072590477 1376.6491203556056 414.9884851461744Q1381.2540250515776 413.462599566444 1385.0687390009039 410.0021090552697L1385.0687390009039 410.0021090552697Q1393.5156056029825 402.34543319983686 1393.5156056029825 387.7677763220554L1393.5156056029825 387.7677763220554Q1393.5156056029825 373.59883879598743 1385.0687390009039 365.75142724308824L1385.0687390009039 365.75142724308824Q1377.9842702378696 359.23916557245315 1367.6300466611276 359.42990126991947L1367.6300466611276 359.42990126991947Q1350.6000736730653 359.42990126991947 1344.0878120024302 374.7432529807852L1344.0878120024302 374.7432529807852Q1341.7717356760536 380.3018361640888 1341.7717356760536 387.95851201952166Q1341.7717356760536 395.64243583173544 1344.0878120024302 401.20101901503904Q1346.3766403720258 406.75960219834263 1350.1096104510088 410.1111008823933Z " fill="#fbf8be" transform="matrix(0.6215825102221186,0,0,0.6215825102221187,0,57.58997319981013)"/></g></svg>